<svg class="icon" viewBox="0 0 1024 1024" version="1.1"
xmlns="http://www.w3.org/2000/svg" p-id="6483" width="1em" height="1em"><path d="M486.736239 69.795025l22.456676 120.230846h392.966369c40.231483 0 72.979104 32.742527 72.979104 72.979104v620.324935c0 40.231483-32.747622 72.979104-72.979104 72.979105H427.792557l26.664756-120.230846H121.840716c-40.231483 0-72.979104-32.747622-72.979104-72.979104V142.774129c0-40.231483 32.747622-72.979104 72.979104-72.979104h364.895523z m415.891741 156.717851h-383.144119l109.471204 609.101691H491.886806l-18.248597 83.733652h428.521075c20.118289 0 36.4921-16.368716 36.492099-36.487005h0.463602V263.004975c0-20.118289-16.373811-36.4921-36.487005-36.492099zM752.242627 437.976517v27.479881h-119.374965v61.460378h112.283383v27.479881h-112.283383v67.074547h124.398169v27.479881h-156.605771V437.976517h151.582567z m112.283383 54.073314c37.821771 0 57.028139 20.683781 57.028139 62.642308v94.258946h-31.321154v-91.599602c0-26.002468-12.114786-39.003701-35.753393-39.003702-8.864478 0-16.842507 2.954826-23.343124 9.455443-7.091582 7.091582-11.523821 16.842507-12.705752 29.252776v91.895085h-31.321154V496.186587h31.321154v18.910886c5.909652-7.682547 12.705751-13.296716 20.388299-17.13799 7.682547-4.136756 16.251542-5.909652 25.706985-5.909652zM313.435701 303.582886H284.478408v51.118487H179.58209v142.71809h28.070845v-16.842508h76.825473v98.986667h28.957293v-98.986667h77.120956v16.842508h28.070845V354.701373H313.435701V303.582886zM284.478408 382.181254v70.915821H207.652935v-70.915821h76.825473z m106.078249 0v70.915821H313.435701v-70.915821h77.120956z" fill="currentColor" p-id="6484"></path></svg>
