<svg class="icon" viewBox="0 0 1228 1024" version="1.1" xmlns="http://www.w3.org/2000/svg" p-id="25899" width="1em" height="1em">
<path d="M364.218306 0.313704c13.866699 0 24.305099 3.37713 34.692331 10.182557a26.710025 26.710025 0 0 1 13.866698 13.610855L409.349037 20.729987l3.428298 3.377129c3.479467 6.805428 10.4384 10.182557 17.346166 13.610856 3.479467 3.37713 6.958934 6.805428 13.866698 6.805428h3.479467c48.55903 27.170542 124.902625 47.586826 176.941122 47.586825h6.958933c27.733397 0 58.946261-6.805428 86.730827-13.610855h6.907765c3.479467 0 10.4384-3.37713 13.866699-3.37713 6.958934-3.428298 13.866699-6.805428 20.825632-6.805428 3.479467 0 6.958934-3.428298 10.387232-3.428298l10.438401-3.377129c17.346165-10.182557 34.692331-20.416283 41.600096-30.598841L818.698074 34.289674l3.428299-3.37713 13.917867-13.610855h27.733397-6.958934 90.210294-3.479466 3.479466c13.866699 3.428298 24.305099 10.182557 34.692331 16.987985l235.887383 234.608167a38.120629 38.120629 0 0 1 10.438401 27.221711 38.06946 38.06946 0 0 1-10.438401 27.170542l-145.677089 142.811645-3.479466 3.37713h-3.479467c-3.479467 3.428298-10.387232 3.428298-13.866699 3.428298h-20.825632c-3.428298-3.428298-10.387232-3.428298-13.866699-6.805428l-3.479467-3.428298c-3.428298-3.37713-3.428298-3.37713-6.907765-3.37713h-3.479466s-3.479467 0-3.479467 3.37713v503.192304c0 34.027139-27.733397 57.820552-58.946262 57.820551H284.446412c-31.212864 0-58.99743-27.221711-58.99743-57.820551V466.101739c0-3.428298-3.479467-6.805428-3.479467-6.805428h-3.428298c-3.479467 0-3.479467 0-6.958933 3.37713l-3.479467 3.428298c-3.479467-10.182557-3.479467-6.805428-6.907765-6.805428 0 0-3.479467 0-3.479467 3.37713H187.277185h3.479466-6.907765 3.428299-6.907765a37.864786 37.864786 0 0 1-24.3051-10.182557L10.387232 309.679238c-13.866699-13.559687-13.866699-40.781398 0-54.392253l48.559029-47.586826 13.866699-13.610855L246.274614 20.729987C256.661846 7.119131 274.008012 0.313704 291.354177 0.313704h72.864129z" fill="currentColor"></path>
</svg>

