<svg t="1711289071115" class="icon" viewBox="0 0 1024 1024" version="1.1"
xmlns="http://www.w3.org/2000/svg" p-id="179075" width="1em" height="1em"><path d="M380 560.992H147.008q-34.016 0-58.496 24.512T64 644v232.992q0 34.016 24.512 58.496T147.008 960h232.992q34.016 0 58.496-24.512t24.512-58.496v-232.992q0-34.016-24.512-58.496t-58.496-24.512z m15.008 316q0 6.016-4.992 11.008-4 4-10.016 4H147.008q-6.016 0-10.496-4.512t-4.512-10.496v-232.992q0-6.016 4.512-10.496t10.496-4.512h232.992q6.016 0 10.496 4.512t4.512 10.496v232.992z m-15.008-812H147.008q-34.016 0-58.496 24.512T64 148v232.992q0 34.016 24.512 58.496t58.496 24.512h232.992q34.016 0 58.496-24.512t24.512-58.496V148q0-34.016-24.512-58.496t-58.496-24.512z m15.008 316q0 6.016-4.992 11.008-4 4-10.016 4H147.008q-6.016 0-10.496-4.512t-4.512-10.496V148q0-6.016 4.512-10.496t10.496-4.512h232.992q6.016 0 10.496 4.512t4.512 10.496v232.992z m480.992 180h-232.992q-34.016 0-58.496 24.512t-24.512 58.496v232.992q0 34.016 24.512 58.496t58.496 24.512h232.992q35.008 0 59.008-24.512t24-58.496v-232.992q0-34.016-24.512-58.496t-58.496-24.512z m15.008 316q0 6.016-4 11.008-4.992 4-11.008 4h-232.992q-6.016 0-10.496-4.512t-4.512-10.496v-232.992q0-6.016 4.512-10.496t10.496-4.512h232.992q6.016 0 10.496 4.512t4.512 10.496v232.992z m-15.008-812h-232.992q-34.016 0-58.496 24.512T560 148v232.992q0 34.016 24.512 58.496t58.496 24.512h232.992q35.008 0 59.008-24.512t24-58.496V148q0-34.016-24.512-58.496t-58.496-24.512z m15.008 316q0 6.016-4 11.008-4.992 4-11.008 4h-232.992q-6.016 0-10.496-4.512t-4.512-10.496V148q0-6.016 4.512-10.496t10.496-4.512h232.992q6.016 0 10.496 4.512t4.512 10.496v232.992z" p-id="179076" fill="currentColor"></path></svg>
