<svg t="1711273831943" class="icon" viewBox="0 0 1026 1024"
 version="1.1" xmlns="http://www.w3.org/2000/svg" p-id="94094" width="1em" height="1em"><path d="M256.282249 365.794928c-35.563396 0-63.788313 29.353914-63.788313 66.046307 0 36.127894 28.789416 66.046307 63.788313 66.046307 35.563396 0 63.788313-29.353914 63.788313-66.046307C320.070562 395.713341 291.281147 365.794928 256.282249 365.794928L256.282249 365.794928 256.282249 365.794928 256.282249 365.794928zM512 365.794928c-35.563396 0-63.788313 29.353914-63.788313 66.046307 0 36.127894 28.789416 66.046307 63.788313 66.046307 35.563396 0 63.788313-29.353914 63.788313-66.046307C575.788313 395.713341 547.563396 365.794928 512 365.794928L512 365.794928 512 365.794928 512 365.794928zM768.282249 365.794928c-35.563396 0-63.788313 29.353914-63.788313 66.046307 0 36.127894 28.789416 66.046307 63.788313 66.046307 35.563396 0 63.788313-29.353914 63.788313-66.046307C832.070562 395.713341 803.281147 365.794928 768.282249 365.794928L768.282249 365.794928 768.282249 365.794928 768.282249 365.794928zM895.858875 32.176406 128.141125 32.176406C57.578831 32.176406 0 91.448732 0 164.833517l0 499.016538c0 73.384785 58.707828 141.124587 130.963616 141.124587l195.316428 0c33.869901 36.127894 174.994487 182.332966 174.994487 182.332966 6.209482 6.77398 16.370452 6.77398 22.579934 0 0 0 103.303197-116.851158 170.478501-182.332966l199.832415 0c72.255788 0 130.963616-67.739802 130.963616-141.124587L1025.128997 164.833517C1024 91.448732 966.985667 32.176406 895.858875 32.176406L895.858875 32.176406 895.858875 32.176406 895.858875 32.176406zM960.211687 662.15656c0 36.127894-30.482911 74.513782-66.610805 74.513782l-196.445424 0c-23.708931 0-45.159868 24.273429-45.159868 24.273429L513.693495 903.197354l-137.737596-141.689085c0 0-25.966924-24.273429-48.546858-24.273429L130.963616 737.23484c-36.127894 0-66.610805-38.385888-66.610805-74.513782L64.352811 168.220507c0-36.127894 28.789416-66.046307 63.788313-66.046307l768.282249 0c35.563396 0 63.788313 29.353914 63.788313 66.046307L960.211687 662.15656 960.211687 662.15656 960.211687 662.15656 960.211687 662.15656zM960.211687 662.15656" p-id="94095" fill="currentColor"></path></svg>
