<svg t="1711270106168" class="icon" viewBox="0 0 1024 1024" version="1.1" xmlns="http://www.w3.org/2000/svg" p-id="86034" width="1em" height="1em">
<path d="M638.016 558.016q48.992-34.016 68.512-88.512t1.504-112-64-92-106.496-34.496-106.496 34.496-64 92 1.504 112 68.512 88.512q-71.008 32-112.992 94.496t-42.016 141.504h76q2.016-76.992 52.512-127.488t127.488-52.512q76 2.016 126.496 52.512t52.512 127.488h76.992q-2.016-80.992-44-143.488t-112-92.512zM51.008 256H128V153.984q0.992-35.008 22.016-56t55.008-20.992h664.992q34.016 0 55.488 20.992t21.504 56v716q0 35.008-21.504 56t-55.488 20.992H205.024q-34.016 0-55.008-20.992T128 869.984v-102.016H51.008v102.016q2.016 68.992 45.504 111.008T205.024 1024h664.992q66.016-0.992 108.992-43.008T1024 869.984V153.984q-2.016-68.992-44.992-111.008T870.016-0.032H205.024Q140.032 0.96 96.512 42.976T51.008 153.984V256z m89.984 76.992H37.984q-16 0-27.008 11.008t-11.008 27.488 11.008 27.008 27.008 11.488h103.008q16-0.992 27.008-11.488t11.008-27.008-11.008-27.488-27.008-11.008z m0 281.024H37.984q-16 0.992-27.008 11.488t-11.008 27.008 11.008 27.488 27.008 11.008h103.008q16 0 27.008-11.008t11.008-27.488-11.008-27.008-27.008-11.488zM538.016 512q-28 0-51.488-13.504t-37.504-37.504-14.016-51.008 14.016-51.488 37.504-38.016 51.488-13.504q43.008 0.992 72 30.016t28.992 72.512-28.992 72.512-72 30.016z" p-id="86035" fill="currentColor"></path></svg>
