<svg t="1711877431237" class="icon" viewBox="0 0 1024 1024" version="1.1"
xmlns="http://www.w3.org/2000/svg" p-id="4602" width="1em" height="1em" fill="currentColor">
<path d="M512 1024C229.664 1024 0 794.336 0 512S229.696 0 512 0s512 229.664 512 512-229.664 512-512 512z m0-950.848C270.016 73.152 73.152 270.016 73.152 512S270.016 950.848 512 950.848 950.848 753.984 950.848 512 753.984 73.152 512 73.152z m1.216 737.536c-101.92 0-196.48-46.08-259.328-126.432a36.544 36.544 0 1 1 57.6-45.056 254.592 254.592 0 0 0 201.728 98.336 254.336 254.336 0 0 0 203.04-100.064 36.544 36.544 0 1 1 57.984 44.544 326.976 326.976 0 0 1-261.024 128.64z m-164.576-295.04A54.816 54.816 0 0 1 293.76 460.8v-73.152a54.816 54.816 0 1 1 109.696 0V460.8c0 30.272-24.576 54.848-54.848 54.848z m329.152 0a54.848 54.848 0 0 1-54.88-54.848v-73.152a54.848 54.848 0 1 1 109.728 0V460.8c0 30.272-24.576 54.848-54.848 54.848z" p-id="5153"></path></svg>
