<svg t="1712258866141" class="icon" viewBox="0 0 1024 1024" version="1.1" xmlns="http://www.w3.org/2000/svg" p-id="10050" width="1em" height="1em"><path d="M691.83 69.238H276.165a34.58 34.58 0 1 1 0-69.238H691.83a34.58 34.58 0 1 1 0 69.238z m109.332 586.043H166.99a34.58 34.58 0 1 1 0-69.238h634.25a34.58 34.58 0 1 1 0 69.238z m29.46 314.053H138.004a142.02 142.02 0 0 1-122.88-71.128C-6.38 859.53-4.884 814.63 19.298 775.01l291.683-508.455V47.577a34.58 34.58 0 1 1 69.238 0v228.115c0 6.066-1.654 11.973-4.569 17.172L79.163 809.905l-0.63 1.024c-11.5 18.511-12.446 36.55-2.915 53.563 11.658 20.953 37.258 35.525 62.386 35.683h692.618a74.673 74.673 0 0 0 62.464-35.919 43.087 43.087 0 0 0-0.788-46.474l-0.394-0.709-299.323-523.027a34.107 34.107 0 0 1-4.49-17.33V47.656a34.58 34.58 0 1 1 69.238 0v219.923l294.203 514.6c22.056 36.47 22.607 78.611 1.733 115.79-24.34 43.323-72.467 71.208-122.722 71.365z" fill="currentColor" p-id="10051"></path></svg>
