<svg t="1711559275041" class="icon" viewBox="0 0 1024 1024" version="1.1"
xmlns="http://www.w3.org/2000/svg" p-id="122413" width="1em" height="1em"><path d="M485.93 534c0-90.83 57.42-159.33 133.55-159.33 27.88 0 69.53 9.27 113.82 51.8a8.068 8.068 0 0 0 11.21 0c11.02-10.58 21.88-19.09 32.4-25.92 2.35-1.53 3.77-4.14 3.69-6.94-5.31-191.93-188.53-288.43-344.81-123.01-7.27 7.7-19.48 7.7-26.75 0C250.43 102.75 64 204.55 64 402.14c0 182.56 289.35 392.01 348.07 432.63 6.24 4.32 14.44 4.3 20.68-0.02 23.78-16.46 85.27-60.53 150.07-119.25-51.95-54.12-96.89-118.99-96.89-181.5z" fill="#FFA8A6" p-id="122414"></path><path d="M738.9 805.47C631.68 730.96 517.78 620.9 517.78 534.01c0-72.64 43.72-127.42 101.69-127.42 22.73 0 57.94 8.29 96.68 47.8l11.36 11.59c3.03 3.08 7.06 4.77 11.37 4.77s8.34-1.69 11.36-4.77l11.37-11.59c38.73-39.51 73.96-47.8 96.68-47.8 57.97 0 101.69 54.78 101.69 127.42 0.02 86.9-113.88 196.96-221.08 271.46z" fill="#FF8080" p-id="122415"></path></svg>
