<svg t="1711557013079" class="icon" viewBox="0 0 1024 1024" version="1.1"
xmlns="http://www.w3.org/2000/svg" p-id="102655" width="1em" height="1em">
<path d="M172.283473 896.690572C257.298586 977.840198 384.936453 1023.970049 511.985536 1023.970049c127.049084 0 234.898729-43.595525 333.302251-119.190114-3.788689-10.59809-8.370955-35.275768-12.671629-40.984401-34.968577-46.206648-120.239683-43.032341-131.554552-47.358615-11.263671-4.300674-62.641368-13.977191-82.224795-42.929944-19.506629-29.05515-28.850356-154.824271-28.850356-154.824271L511.985536 614.382029l-78.000918 4.300675s-9.343727 125.769121-28.850356 154.824271c-19.583427 28.952753-70.961124 38.654869-82.224795 42.955543-11.28927 4.300674-96.585975 1.126367-131.580151 47.333016-4.275075 5.708633-15.231554 22.271349-19.045843 32.895038z" fill="#E26561" p-id="102657"></path><path d="M509.8096 639.981281l-87.959027 3.942284s-8.21736 116.118204-32.536648 141.768654c-20.505 21.605768-60.542229 28.440768-82.122398 33.48382 4.223876 26.879214 22.783334 66.609252 99.47869 86.576668C542.653439 941.20767 679.865426 914.20046 716.779546 819.176039c-19.609026-4.684663-64.074926-13.33721-86.47427-33.50942-27.00721-24.319289-32.536648-141.743054-32.536649-141.743054L509.8096 639.981281z" fill="#FEDBC0" p-id="102658"></path><path d="M594.363927 643.846767L506.251304 639.981281l-84.400731 3.865486s-1.894345 31.819869-7.602978 64.407717c31.768671 23.500113 81.149626 53.809626 143.6118 59.415862 17.714682 1.612753 37.221311-3.276704 56.523146-11.468465-13.465206-42.648353-16.639513-112.355114-16.639513-112.355114h-3.379101z" fill="#F4C1A2" p-id="102659"></path><path d="M669.164939 581.486992c36.171742-65.610881 42.929944-99.990675 47.486611-141.947849 4.505468-41.931574-110.716762-187.079328-169.467043-206.457961-58.699083-19.327435-95.945994-40.805206-149.038841-19.327434-53.067248 21.503371-81.303222 73.085862-88.112622 96.765169-6.758202 23.679307-1.100768 182.804253 13.567603 238.713018C338.269018 605.166299 440.819618 679.352929 511.985536 691.179783c80.740038-29.38794 133.116106-65.943671 157.179403-109.692791z" fill="#FEDFC9" p-id="102660"></path><path d="M511.985536 204.79401c13.567603 4.991854 28.03118 10.93088 44.184308 16.690712 55.627173 19.890618 164.756781 168.699066 160.507305 211.705807-4.351873 43.006742-11.519663 79.076087-45.745862 146.350919-22.783334 44.849888-75.773784 82.0456-158.945751 111.638335z" fill="#FCD6BA" p-id="102661"></path><path d="M588.78329 563.183527s-36.350937 10.700487-48.510581 11.391667c-12.108446 0.716779-28.287173 5.708633-28.287173 5.708633s-16.204326-4.991854-28.287172-5.708633C471.53872 573.884014 435.187783 563.183527 435.187783 563.183527s30.309513 45.617866 76.797753 45.617866c46.462641 0 76.797754-45.617866 76.797754-45.617866z" fill="#AB4F42" p-id="102662"></path><path d="M792.988517 356.59757c-0.33279 2.431929-2.483127 6.067023-13.260412 4.607865a26.034438 26.034438 0 0 1-13.081217-5.964626c13.644401-18.841049 29.695131-52.836855 11.929251-95.894795-22.757734-55.140787-77.232941-84.400731-104.700938-96.201986-12.364438-12.799626-25.343259-23.884101-38.091686-31.640674-53.988821-32.869439-145.63414-63.230151-176.711631-52.529664-31.128689 10.649289-55.652772 52.529664-58.878278 65.610881 0 0-49.099364-8.959738-91.645319 59.108671-42.571555 68.094008-81.968802 128.764234-77.872922 209.965058 4.044682 81.226424 37.6053 110.742361 39.269251 124.719552 1.638352 13.951592-6.399813 58.212697 18.943446 85.296706 25.343259 27.109607 89.187791 22.168952 91.645319 39.422846 2.431929 17.151498-18.81545 17.151498-26.213633 13.106817 0 0 12.31324 21.324176 39.269252 13.055618 27.032809-8.19176 23.551311-39.243652 23.551311-39.243652s-58.391892-26.34163-82.429589-98.531518c-12.441236-37.323708-13.055618-144.379777-13.055618-144.379777 4.889457-44.312304 30.258315-80.381649 48.280187-95.178016 17.945075-14.719569 38.398877-41.829176 36.760525-62.308577 0 0 126.025114-4.940655 157.077006 52.452865 31.128689 57.44472 103.088185 157.512193 130.91457 164.091201 0 0 1.612753 47.614607-19.634625 59.057472 0 0-11.596461 83.120769-70.577136 122.518017 0 0 41.137997 49.790544 109.820788 21.86176 68.759589-27.851985 65.431686-73.85384 58.929476-85.296705 0 0-9.830112 31.179888-19.634626 26.264832a46.283446 46.283446 0 0 1-19.634625-59.083072c13.106817-32.767042 55.601574-78.768896 58.878278-98.429121 3.327903-19.660225-4.09588-50.020937-32.741443-45.925057 0 0 33.816611-18.892247 32.895038-50.532921z m-38.834064-19.813821c-5.350244-13.311611-7.654176-30.539907-7.090993-47.768203 0.563184-18.431461-18.277865-56.625544-44.619494-92.054907 22.245749 12.185244 50.020937 32.408652 63.690937 62.385375 17.714682 38.834064-0.665581 65.738877-11.98045 77.437735z" fill="#631A19" p-id="102663"></path><path d="M307.191527 563.183527c-6.50221-25.65045-9.804513-70.679533-10.828484-102.192211-1.331161-4.735861-1.484757-19.711423-1.484756-19.711423s-12.492435-12.620431-27.749588-1.535956c-15.231554 11.135674-14.873165 58.622285 1.279962 90.928541 13.388408 26.725618 27.954382 31.999064 38.782866 32.511049z" fill="#EEB795" p-id="102664"></path></svg>
