<svg t="1711556941726" class="icon" viewBox="0 0 1024 1024" version="1.1"
xmlns="http://www.w3.org/2000/svg" p-id="102502" width="1em" height="1em">
<path d="M170.141538 885.641846c84.007385 80.147692 210.038154 125.715692 335.556924 125.715692 125.479385 0 231.975385-43.047385 329.176615-117.720615-3.741538-10.476308-8.270769-34.855385-12.524308-40.487385-34.540308-45.646769-118.744615-42.496-129.929846-46.749538-11.145846-4.253538-61.873231-13.784615-81.211077-42.417231-19.298462-28.711385-28.514462-152.930462-28.514461-152.930461l-76.996923-4.253539-77.036308 4.253539s-9.255385 124.219077-28.514462 152.930461c-19.337846 28.593231-70.104615 38.163692-81.211077 42.417231-11.145846 4.253538-95.389538 1.102769-129.96923 46.749538-4.214154 5.632-15.044923 22.016-18.786462 32.492308z" fill="#8a8a8a" p-id="102504"></path><path d="M503.532308 632.123077l-86.882462 3.859692s-8.113231 114.688-32.137846 140.012308c-20.243692 21.346462-59.785846 28.120615-81.132308 33.083077 4.174769 26.584615 22.528 65.772308 98.264616 85.504 134.301538 35.052308 269.863385 8.349538 306.294154-85.464616-19.337846-4.647385-63.291077-13.233231-85.385847-33.083076-26.702769-24.024615-32.137846-140.051692-32.137846-140.051693l-86.882461-3.899077z" fill="#cdcdcd" p-id="102505"></path><path d="M587.067077 635.904l-87.04-3.820308-83.377231 3.820308s-1.851077 31.428923-7.483077 63.606154c31.350154 23.236923 80.108308 53.169231 141.863385 58.683077 17.447385 1.614769 36.706462-3.229538 55.768615-11.303385-13.272615-42.141538-16.384-110.985846-16.384-110.985846h-3.347692z" fill="#bfbfbf" p-id="102506"></path><path d="M660.952615 574.306462c35.682462-64.787692 42.377846-98.737231 46.867693-140.209231 4.450462-41.353846-109.331692-184.713846-167.384616-203.894154-57.974154-19.101538-94.759385-40.290462-147.180307-19.101539-52.420923 21.267692-80.344615 72.231385-87.04 95.586462-6.695385 23.394462-1.102769 180.578462 13.390769 235.795692 14.493538 55.217231 115.790769 128.472615 186.092308 140.209231 79.714462-29.065846 131.465846-65.181538 155.254153-108.386461z" fill="#e6e6e6" p-id="102507"></path><path d="M505.659077 202.279385c13.430154 4.923077 27.687385 10.791385 43.677538 16.462769 54.941538 19.692308 162.697846 166.636308 158.483693 209.132308-4.253538 42.456615-11.342769 78.060308-45.174154 144.541538-22.488615 44.268308-74.830769 81.014154-156.947692 110.276923z" fill="#dbdbdb" p-id="102508"></path><path d="M581.513846 556.228923s-35.879385 10.594462-47.891692 11.264a145.723077 145.723077 0 0 0-27.963077 5.632s-15.990154-4.923077-27.923692-5.632c-12.012308-0.669538-47.891692-11.264-47.891693-11.264s29.932308 45.095385 75.815385 45.095385c45.922462 0 75.854769-45.095385 75.854769-45.095385z" fill="#cdcdcd" p-id="102509"></path><path d="M783.202462 352.177231c-0.315077 2.402462-2.441846 6.025846-13.075693 4.568615a25.718154 25.718154 0 0 1-12.918154-5.907692c13.469538-18.589538 29.302154-52.145231 11.776-94.680616-22.449231-54.468923-76.288-83.377231-103.424-95.035076-12.209231-12.603077-25.009231-23.591385-37.612307-31.232-53.326769-32.452923-143.832615-62.464-174.513231-51.869539-30.72 10.476308-54.980923 51.869538-58.171077 64.787692 0 0-48.482462-8.861538-90.545231 58.368-42.023385 67.268923-80.935385 127.172923-76.878769 207.399385 3.977846 80.187077 37.139692 109.371077 38.793846 123.155692 1.575385 13.784615-6.301538 57.501538 18.707692 84.283077 25.048615 26.781538 88.064 21.897846 90.505847 38.872616 2.402462 16.974769-18.589538 16.974769-25.875693 12.996923 0 0 12.130462 21.070769 38.793846 12.918154 26.663385-8.113231 23.236923-38.793846 23.236924-38.793847s-57.698462-25.993846-81.447385-97.28c-12.248615-36.903385-12.878769-142.611692-12.878769-142.611692 4.844308-43.795692 29.932308-79.399385 47.655384-94.011077 17.762462-14.572308 37.966769-41.353846 36.352-61.558154 0 0 124.455385-4.883692 155.175385 51.79077 30.72 56.753231 101.769846 155.569231 129.260308 162.107076 0 0 1.575385 46.985846-19.377231 58.289231 0 0-11.460923 82.116923-69.710769 121.028923 0 0 40.605538 49.191385 108.504615 21.58277 67.859692-27.490462 64.590769-72.940308 58.171077-84.283077 0 0-9.688615 30.838154-19.416615 25.993846a45.686154 45.686154 0 0 1-19.377231-58.368c12.957538-32.374154 54.902154-77.784615 58.171077-97.201231 3.268923-19.456-4.056615-49.427692-32.33477-45.371077 0 0 33.398154-18.668308 32.452924-49.939692z m-38.360616-19.534769c-5.277538-13.154462-7.522462-30.168615-6.971077-47.18277 0.551385-18.235077-18.038154-55.926154-44.110769-90.899692 22.016 12.012308 49.427692 31.980308 62.936615 61.597538 17.486769 38.321231-0.669538 64.905846-11.815384 76.484924z" fill="#515151" p-id="102510"></path><path d="M303.419077 556.228923c-6.419692-25.324308-9.688615-69.789538-10.712615-100.942769-1.299692-4.647385-1.457231-19.416615-1.457231-19.416616s-12.366769-12.484923-27.411693-1.575384c-15.044923 11.027692-14.690462 57.895385 1.260308 89.836308 13.233231 26.387692 27.569231 31.625846 38.321231 32.098461z" fill="#cdcdcd" p-id="102511"></path></svg>
