<svg t="1711291232809" class="icon" viewBox="0 0 1367 1024" version="1.1"
xmlns="http://www.w3.org/2000/svg" p-id="201839" width="1em" height="1em"><path d="M1194.653393 1024H170.66477a170.66477 170.66477 0 0 1-170.66477-170.66477V170.676148a170.66477 170.66477 0 0 1 170.66477-170.66477h1080.87688a113.776514 113.776514 0 0 1 109.794335 78.505794 113.776514 113.776514 0 0 1-39.252897 129.136343L790.746769 614.404551a170.66477 170.66477 0 0 1-215.03761-5.688826L247.463917 327.687737a56.888257 56.888257 0 1 1 73.954734-86.470151l328.245242 281.027989a56.888257 56.888257 0 0 0 71.679203 0L1251.54165 117.770069 170.66477 113.787891a56.888257 56.888257 0 0 0-56.888256 56.888257v682.659082a56.888257 56.888257 0 0 0 56.888256 56.888256h1023.988623a56.888257 56.888257 0 0 0 56.888257-56.888256V398.229175a56.888257 56.888257 0 0 1 113.776513 0v455.106055a170.66477 170.66477 0 0 1-170.66477 170.66477z" fill="currentColor" p-id="201840"></path></svg>
