<svg t="1711556782397" class="icon" viewBox="0 0 1024 1024" version="1.1"
xmlns="http://www.w3.org/2000/svg" p-id="102349" width="1em" height="1em">
<path d="M639.393185 584.324741s-5.461333 73.576296 12.591408 127.506963c-18.204444 33.033481-50.744889 96.331852-56.32 146.697481-1.517037 13.653333-3.413333 52.489481-5.044149 107.633778-8.040296 1.517037-16.156444 2.88237-24.272592 4.058074-17.673481 2.161778-35.612444 3.413333-53.778963 3.640889-25.031111-0.455111-60.453926-3.792593-82.792296-7.964445-1.668741-54.992593-18.014815-45.131852-23.324445-92.99437-5.271704-47.862519-55.48563-138.05037-45.245629-161.071407 10.24-23.058963 14.791111-47.407407 15.511703-50.062223 15.322074-53.020444 3.982222-77.444741 3.982222-77.44474z" fill="#F4B58A" p-id="102351"></path><path d="M646.561185 559.976296h-265.102222s1.706667 55.10637-3.565037 97.697185c23.969185 52.489481 125.079704 125.307259 159.895704 138.164149 44.183704 16.308148 108.771556 1.441185 108.771555 1.441185 30.075259-5.499259 35.119407-27.306667 15.170371-65.460148-29.961481-57.268148-15.17037-171.804444-15.170371-171.804445zM330.789926 429.814519s-23.514074-69.783704-54.727111-59.922963c-31.137185 9.784889-8.722963 147.721481 65.763555 164.219259 74.600296 16.497778-11.036444-104.296296-11.036444-104.296296z m345.201778-9.557334s26.81363-68.570074 63.260444-52.641185c36.560593 15.928889-35.271111 155.420444-64.360296 165.091556-29.013333 9.595259 1.099852-112.45037 1.099852-112.450371z" fill="#D78562" p-id="102352"></path><path d="M337.464889 532.66963c19.190519 69.214815 102.703407 126.407111 113.057185 135.205926 3.868444 3.299556 43.121778 13.956741 59.771259 13.842963 28.48237-0.18963 70.314667-19.721481 76.534519-23.893334 9.860741-6.485333 77.937778-83.13363 85.788444-106.913185 7.774815-23.817481 24.462222-91.477333 24.310519-152.462222-0.113778-60.871111-1.365333-180.906667-43.994074-197.101037-42.666667-16.080593-119.694222 2.541037-202.410667 1.327407-82.678519-1.251556-119.921778-1.706667-123.448889 19.076741-3.527111 20.859259-15.132444 53.323852-15.132444 53.323852s6.371556 188.719407 25.524148 257.592889z" fill="#F4B58A" p-id="102353"></path><path d="M509.079704 200.855704c59.392-3.944296 111.502222-11.719111 143.853037 0.493037 42.628741 16.19437 43.880296 136.229926 43.994074 197.101037 0.151704 60.984889-16.535704 128.644741-24.310519 152.462222-7.850667 23.779556-75.927704 100.427852-85.788444 106.951111-6.219852 4.096-48.052148 23.665778-76.534519 23.893333h-1.137777z" fill="#F5AE7E" p-id="102354"></path><path d="M301.549037 313.268148C297.984 230.968889 322.37037 205.330963 322.37037 205.330963s15.701333-22.376296 37.24326-31.630222c0 0 19.721481-60.567704 60.340148-68.532148 40.580741-8.078222 90.680889-11.45363 140.932741-2.275556 50.289778 9.216 110.705778 28.672 163.271111 15.853037 0 0 43.728593 30.606222 16.156444 87.646815-27.685926 57.230222-28.254815 51.503407-28.254815 51.503407s15.397926 112.753778-19.456 198.921482c0 0-4.171852-198.921481-43.538963-219.439408-39.367111-20.555852-65.194667 22.300444-139.377777 22.603852-74.107259 0.303407-104.561778-15.246222-104.561778-15.246222s-25.031111-6.068148-34.664297 3.527111c-25.524148 25.296593-44.828444 88.367407-44.828444 150.148741v66.863407s-20.48-69.480296-24.045037-152.007111z" fill="#000000" p-id="102355"></path><path d="M610.379852 877.112889c-0.151704 44.297481-1.630815 73.121185-4.399408 86.546963a492.430222 492.430222 0 0 1-177.189925 4.171852c-15.397926-2.806519-27.079111-6.219852-45.624889-9.746963l25.296592-80.402963c30.264889 15.435852 62.957037 23.248593 98.076445 23.514074 52.717037 0.379259 90.149926-11.832889 103.841185-24.082963z" fill="#EBF3F6" p-id="102356"></path><path d="M651.07437 708.456296c6.257778 15.890963 14.563556 24.500148 26.927408 34.019556 26.548148 20.29037 105.623704 61.022815 174.08 86.243555-31.288889 28.975407-59.922963 53.930667-94.814815 75.358815-7.585185 4.626963-15.36 9.02637-23.248593 13.198222-39.329185 20.707556-87.419259 37.736296-154.168889 51.693037l13.69126-2.920296a485.451852 485.451852 0 0 1-13.653334 2.275556c1.668741-51.048296-8.874667-61.060741 8.229926-126.672593 12.022519-46.08 42.780444-102.248296 62.957037-133.157926zM365.492148 701.25037c19.721481 31.819852 45.928296 89.543111 57.647408 136.912593 16.801185 67.811556 7.736889 76.837926 9.481481 129.896296-18.204444-2.578963-35.802074-6.181926-52.792889-10.619259a484.389926 484.389926 0 0 1-123.524741-52.337778l5.575112 3.337482a487.044741 487.044741 0 0 1-9.860741-5.916445h-0.037926a499.029333 499.029333 0 0 1-93.259852-74.258963c66.939259-25.941333 150.565926-71.149037 176.545185-92.008296 12.09837-9.784889 24.082963-18.659556 30.226963-34.967704z" fill="#1D334B" p-id="102357"></path><path d="M578.180741 969.007407c18.773333-2.958222 55.826963-12.136296 73.803852-17.066666 66.863407-45.89037 82.223407-127.089778 97.735111-167.822222-25.78963-13.577481-34.019556-18.090667-49.038223-26.548149-14.411852-8.229926-41.604741-32.237037-49.114074-47.976296a28.330667 28.330667 0 0 1-0.758518-1.744593c-20.100741 30.454519-65.72563 97.810963-71.86963 144.194371-1.706667 12.781037-0.758519 72.817778-0.758518 116.925629zM444.757333 969.955556c-19.949037-3.299556-51.579259-7.395556-72.628148-14.866963-71.035259-51.38963-93.184-130.275556-109.681778-175.862519 27.420444-15.17037 36.181333-20.214519 52.110223-29.733926 15.36-9.140148 44.22163-36.067556 52.224-53.665185a32.57837 32.57837 0 0 0 0.83437-1.896296c21.31437 34.019556 69.82163 109.37837 76.344889 161.298963 1.820444 14.298074 0.796444 65.34637 0.796444 114.725926z" fill="#4B7499" p-id="102358"></path></svg>
