<svg t="1711807252188" class="icon" viewBox="0 0 1024 1024" version="1.1" xmlns="http://www.w3.org/2000/svg"
 p-id="202986" width="1em" height="1em" fill="currentColor">
 <path d="M679.936 735.232v15.872c0 13.312-10.752 24.064-24.064 24.064H368.128c-13.312 0-24.064-10.752-24.064-24.064v-15.872c0-13.312 10.752-24.064 24.064-24.064h287.744c13.312 0 24.064 10.752 24.064 24.064z" p-id="202987"></path><path d="M689.664 927.232H334.336c-71.68 0-130.048-58.368-130.048-130.048V226.304c0-71.68 58.368-130.048 130.048-130.048h355.328c71.68 0 130.048 58.368 130.048 130.048v570.88c0 71.68-58.368 130.048-130.048 130.048zM334.336 160.768c-36.352 0-66.048 29.696-66.048 66.048v570.88c0 36.352 29.696 66.048 66.048 66.048h355.328c36.352 0 66.048-29.696 66.048-66.048V226.304c0-36.352-29.696-66.048-66.048-66.048H334.336z" fill="currentColor" p-id="202988"></path></svg>
