<svg class="icon" viewBox="0 0 1024 1024" version="1.1"
xmlns="http://www.w3.org/2000/svg" p-id="50705" width="1em" height="1em">
<path d="M508.801562 1024c61.769839-0.499756 118.542118-34.083358 148.727379-88.057003H359.774329c30.185261 53.873694 86.95754 87.457296 148.727379 88.057003m368.819912-157.922889H139.98165c-35.98243-0.499756-64.668424-29.985359-64.268619-65.967789 0.099951-2.898585 0.299854-5.697218 0.699658-8.495852l-2.49878-1.399317 9.095559-24.787896c33.983407-62.969253 57.771791-130.836115 70.565544-201.301708V364.522011C151.476037 166.018936 310.298487 3.298389 508.801562 0.499756c198.603026 2.598731 357.625378 165.51918 355.426452 364.222157v196.803904c12.693802 71.465105 36.482186 140.43143 70.665495 204.500147l11.594339 23.488531-5.097511 2.698682c0.399805 2.698682 0.599707 5.497316 0.599707 8.295949 0.299854 35.882479-28.486091 65.268131-64.36857 65.767887l-0.299854-0.199902z m-130.236408-52.374427h130.236408c7.396388-0.099951 13.293509-6.097023 13.293509-13.493411-0.199902-2.49878-1.099463-4.897609-2.698682-6.896633l-15.392484-24.488043 5.497316-2.898584c-32.684041-64.268619-54.573353-133.334895-64.968278-204.700049V364.522011c1.799122-169.917033-134.334407-309.348951-304.251439-311.647828-170.016984 2.198926-306.150512 141.530893-304.451342 311.647828v199.602538c-10.195022 70.365642-32.084334 138.632308-64.768375 201.801464l3.798145 1.999024-14.492923 26.087262c-1.399317 1.999024-2.198926 4.397853-2.198926 6.896632 0.199902 7.196486 6.196974 12.893704 13.293509 12.893704h607.303465l-0.199903-0.099951z" fill="currentColor" p-id="50706"></path>
</svg>
