<svg t="1711873279296" class="icon" viewBox="0 0 1024 1024" version="1.1" xmlns="http://www.w3.org/2000/svg" p-id="4878" width="1em" height="1em">

<path d="M411.98841431 283.41338514l-41.66425854 41.66425853-58.58591985-6.54114639A440.20685014 440.20685014 0 0 0 49.80798264 370.29687307l601.14557314 601.57216964a442.41894487 442.41894487 0 0 0 51.68927637-262.0013527l-6.39894756-58.58591984 269.4667915-269.4667915L639.64874843 55.75305101l-227.66033412 227.66033413z" fill="currentColor" p-id="4975"></path>
<path d="M1002.96345639 347.71781032l-329.18692955-329.18692957a44.18690633 44.18690633 0 0 0-62.8244886-1e-8l-215.1431865 215.3663641a440.29095957 440.29095957 0 0 0-325.00234996 93.90196651 44.42362191 44.42362191 0 0 0-3.62663566 66.0047691l242.70561756 242.70561757-287.73169419 287.50851659a21.14659089 21.14659089 0 0 0-6.19317783 13.1116828l-4.51934598 49.71280579a21.30440127 21.30440127 0 0 0 23.21046824 23.09887946l49.71280582-4.51934597c4.90990675-0.44635515 9.59663591-2.67813095 13.11168278-6.19317782l287.7316942-287.73169419 242.70561756 242.70561755a44.18690633 44.18690633 0 0 0 66.06056348-3.57084128 441.23782186 441.23782186 0 0 0 93.73458333-325.16973313l215.1989809-215.1989809c17.24046801-17.12887921 17.29626239-45.19345982 1e-8-62.48972221z m-283.32393699 210.01010216l-32.75130978 32.75130977 5.07728994 45.91878696a347.18283551 347.18283551 0 0 1-40.67411386 205.60234499l-471.63001957-471.96478595A345.60473171 345.60473171 0 0 1 385.26371111 329.47304319l45.86299256 5.02149554L642.47587133 123.14537109l255.87309473 255.87309473-178.70944666 178.70944666z" fill="currentColor" p-id="4977"></path>
</svg>
