<svg t="1711270423305" class="icon" viewBox="0 0 1024 1024" version="1.1" xmlns="http://www.w3.org/2000/svg" p-id="93116" width="1em" height="1em"><path d="M583.68 847.36A115.2 115.2 0 0 1 512 823.466667a116.48 116.48 0 0 1-42.666667-77.226667 78.933333 78.933333 0 0 1 0-17.493333V329.813333A116.48 116.48 0 0 1 564.48 213.333333l231.253333-36.266666a116.906667 116.906667 0 0 1 85.333334 23.04 113.493333 113.493333 0 0 1 42.666666 77.226666 118.186667 118.186667 0 0 1 0 17.92v398.506667A117.333333 117.333333 0 0 1 831.146667 810.666667l-231.253334 36.266666a100.693333 100.693333 0 0 1-16.213333 0.426667zM810.666667 251.733333h-5.12l-229.546667 36.266667a40.106667 40.106667 0 0 0-32.853333 42.666667v405.333333a40.533333 40.533333 0 0 0 44.8 34.133333l229.12-36.266666a42.666667 42.666667 0 0 0 33.28-40.533334V293.546667a36.693333 36.693333 0 0 0 0-7.253334 38.826667 38.826667 0 0 0-15.36-26.026666 37.973333 37.973333 0 0 0-24.32-8.533334z" fill="#8390B9" p-id="93117"></path><path d="M122.026667 293.546667v399.36a78.933333 78.933333 0 0 0 65.28 79.36l230.4 36.266666a78.08 78.08 0 0 0 87.466666-66.986666 120.746667 120.746667 0 0 0 0-12.373334V329.813333a79.786667 79.786667 0 0 0-65.706666-79.36L209.92 213.333333a78.08 78.08 0 0 0-85.333333 66.986667 60.16 60.16 0 0 0-2.56 13.226667z" fill="#8390B9" p-id="93118"></path><path d="M426.666667 847.36a95.146667 95.146667 0 0 1-15.786667 0L181.333333 810.666667A116.906667 116.906667 0 0 1 85.333333 692.48V293.973333a85.333333 85.333333 0 0 1 0-17.92 116.053333 116.053333 0 0 1 128-99.84l232.96 37.12a117.333333 117.333333 0 0 1 98.133334 117.76v398.933334a128 128 0 0 1 0 17.493333 113.493333 113.493333 0 0 1-42.666667 76.8 115.2 115.2 0 0 1-75.093333 23.04zM199.68 251.733333a38.826667 38.826667 0 0 0-23.893333 8.533334 42.666667 42.666667 0 0 0-15.36 26.026666v406.613334a42.666667 42.666667 0 0 0 33.706666 42.666666l229.546667 35.84a40.106667 40.106667 0 0 0 42.666667-34.133333 32.426667 32.426667 0 0 0 0-6.4v-401.066667a42.666667 42.666667 0 0 0-33.706667-42.666666l-228.693333-34.986667z" fill="currentColor" p-id="93119"></path></svg>
