<svg t="1711656980685" class="icon" viewBox="0 0 1024 1024" version="1.1"
xmlns="http://www.w3.org/2000/svg" p-id="162333" width="1em" height="1em">
<path  fill="currentColor" d="M180.900581 747.901755c-30.945803 0-56.030108 25.063839-56.030108 56.009641 0 30.944779 25.084305 56.029084 56.030108 56.029084s56.030108-25.084305 56.030108-56.029084C236.930689 772.966617 211.846384 747.901755 180.900581 747.901755z" p-id="204164"></path><path  fill="currentColor" d="M510.205633 604.477204c-36.536125-56.352449-85.313038-101.850689-144.975882-135.229914-100.747565-56.364729-197.478653-58.401108-201.547319-58.459437-0.161682-0.002047-0.322341-0.00307-0.483001-0.00307-17.797341 0-32.391734 14.295588-32.650631 32.149211-0.261966 18.016329 14.09195 32.832779 32.107255 33.093722 0.853437 0.017396 86.431511 2.228761 172.965353 51.43137 49.770544 28.29851 90.38966 66.621327 120.730689 113.90319 38.395472 59.833737 60.724013 134.757147 66.3655 222.685755 1.107217 17.271362 15.459087 30.537504 32.524764 30.537504 0.701988 0 1.410116-0.022513 2.12029-0.068562 17.980513-1.153266 31.622208-16.664541 30.467919-34.645055C581.423651 759.967558 555.305807 674.04156 510.205633 604.477204z" p-id="204165"></path><path  fill="currentColor" d="M910.717446 863.324554c-8.742105-166.089759-53.333696-308.439838-132.536572-423.098227-63.663972-92.164073-149.428288-166.350702-254.911714-220.49588-93.13212-47.805796-184.738491-70.76367-245.186212-81.605599-65.825195-11.805884-109.704564-12.278651-111.540376-12.292977-17.96107-0.168846-32.69975 14.329357-32.859385 32.333406-0.160659 18.003026 14.310937 32.732495 32.314986 32.913621 0.409322 0.004093 41.704844 0.539282 102.921068 11.69639 56.07104 10.218736 140.910287 31.714306 226.6613 76.088956 95.30153 49.318242 172.597987 116.488061 229.740428 199.642946 71.718415 104.364953 112.172779 234.991012 120.239502 388.248512 0.916882 17.410532 15.318894 30.909987 32.55137 30.909987 0.577145 0 1.159406-0.01535 1.74269-0.046049C897.845277 896.672056 911.664004 881.317347 910.717446 863.324554z" p-id="204166"></path>
</svg>
