<svg t="1711877581769" class="icon" viewBox="0 0 1024 1024" version="1.1" xmlns="http://www.w3.org/2000/svg"
p-id="7449" width="1em" height="1em">
<path d="M224.3 544.1h-0.5c-17.4 0-31.7 14.2-31.7 31.7v187.8c-0.1 1.2-0.2 2.3-0.2 3.5v0.5c0 6.1 1.7 11.8 4.7 16.6 5.5 9.3 15.7 15.5 27.2 15.5h0.5c1.7 0 3.4-0.1 5-0.4h186.5c17.4 0 31.7-14.2 31.7-31.7v-0.5c0-17.4-14.2-31.7-31.7-31.7H256V575.8c0-17.4-14.2-31.7-31.7-31.7z m543.6-97.2c0 17.4 14.2 31.7 31.7 31.7h0.5c17.4 0 31.7-14.2 31.7-31.7V259.8c0.2-1.4 0.3-2.8 0.3-4.3v-0.5c0-8.2-3.2-15.7-8.3-21.3-5.8-6.5-14.3-10.7-23.7-10.7h-0.5c-1.5 0-2.9 0.1-4.3 0.3H608.2c-17.4 0-31.7 14.2-31.7 31.7v0.5c0 17.4 14.2 31.7 31.7 31.7h159.7v159.7zM638.9 896a32.2 32.1 0 1 0 64.4 0 32.2 32.1 0 1 0-64.4 0z" fill="currentColor" p-id="7450"></path><path d="M832.4 98.2H192.2c-70.4 0-128 57.6-128 128v574.1c0 70.4 57.6 128 128 128h350v-0.3c17.8 0 32.2-14.4 32.2-32.1 0-17.7-14.4-32.1-32.2-32.1H192c-35.2 0-64-28.8-64-64v-574c0-35.2 28.8-64 64-64h641.1c35.2 0 64 28.8 64 64v574.1c0 35.2-28.8 64-64 64h-33.2c-17.8 0-32.2 14.4-32.2 32.1 0 17.7 14.4 32.1 32.2 32.1v0.2h32.4c70.4 0 128-57.6 128-128V226.2c0.1-70.4-57.5-128-127.9-128z" fill="currentColor" p-id="7451"></path></svg>
