<svg class="icon" viewBox="0 0 1024 1024" version="1.1" xmlns="http://www.w3.org/2000/svg"
 p-id="17646" width="1em" height="1em"><path d="M978.56 552.768l-73.6 20.992a18.496 18.496 0 0 0-12.928 14.336 382.528 382.528 0 0 1-12.928 48 18.432 18.432 0 0 0 4.032 18.816l53.312 55.04c5.76 5.952 6.848 14.976 2.752 22.144l-23.04 39.808a18.496 18.496 0 0 1-20.48 8.704l-74.752-18.752a18.496 18.496 0 0 0-18.304 5.888c-10.88 12.352-22.528 24-34.88 34.88a18.496 18.496 0 0 0-5.824 18.368l18.688 74.688a18.496 18.496 0 0 1-8.704 20.48l-39.808 23.04a18.496 18.496 0 0 1-22.08-2.752l-55.36-53.568a18.432 18.432 0 0 0-18.88-4.096 383.552 383.552 0 0 1-47.68 12.992 18.56 18.56 0 0 0-14.208 12.928l-21.12 73.92a18.496 18.496 0 0 1-17.792 13.376h-45.952a18.496 18.496 0 0 1-17.792-13.44l-21.12-73.856a18.496 18.496 0 0 0-14.208-12.928 383.36 383.36 0 0 1-47.808-12.864 18.432 18.432 0 0 0-18.816 4.096l-55.296 53.44a18.496 18.496 0 0 1-22.08 2.752l-39.808-23.04a18.496 18.496 0 0 1-8.704-20.48l18.752-74.816a18.496 18.496 0 0 0-5.888-18.368 390.336 390.336 0 0 1-34.944-34.752 18.496 18.496 0 0 0-18.368-5.824l-74.624 18.688a18.496 18.496 0 0 1-20.48-8.704l-23.04-39.808a18.496 18.496 0 0 1 2.752-22.08l53.376-55.232a18.432 18.432 0 0 0 4.096-18.88 383.488 383.488 0 0 1-12.992-47.872 18.496 18.496 0 0 0-12.992-14.208l-73.6-21.12A18.496 18.496 0 0 1 32 535.04v-45.952c0-8.32 5.44-15.488 13.44-17.792l73.6-21.056a18.496 18.496 0 0 0 12.928-14.272c3.328-16.256 7.68-32.256 12.992-48a18.432 18.432 0 0 0-4.096-18.816l-53.312-55.04a18.496 18.496 0 0 1-2.752-22.144l23.04-39.808a18.496 18.496 0 0 1 20.48-8.704l74.752 18.752a18.496 18.496 0 0 0 18.368-5.888c10.88-12.352 22.464-24 34.816-34.88a18.432 18.432 0 0 0 5.888-18.368l-18.752-74.688a18.496 18.496 0 0 1 8.704-20.48l39.808-23.04a18.496 18.496 0 0 1 22.08 2.752l55.36 53.568c5.056 4.8 12.352 6.4 18.88 4.096 15.616-5.312 31.488-9.664 47.68-12.992a18.496 18.496 0 0 0 14.208-12.928l21.12-73.92A18.496 18.496 0 0 1 489.024 32h45.952c8.256 0 15.488 5.44 17.792 13.44l21.12 73.856c1.92 6.656 7.424 11.648 14.272 12.928 16.192 3.264 32.128 7.552 47.744 12.864a18.432 18.432 0 0 0 18.88-4.096l55.232-53.44a18.496 18.496 0 0 1 22.08-2.752l39.808 23.04a18.496 18.496 0 0 1 8.704 20.48l-18.752 74.816a18.496 18.496 0 0 0 5.888 18.368c12.352 10.88 24.064 22.4 34.944 34.752 4.544 5.248 11.648 7.488 18.368 5.824l74.624-18.688a18.496 18.496 0 0 1 20.48 8.704l23.04 39.808a18.496 18.496 0 0 1-2.752 22.08l-53.44 55.232a18.432 18.432 0 0 0-4.032 18.88c5.376 15.616 9.728 31.616 12.992 47.872 1.28 6.784 6.336 12.288 12.992 14.208l73.6 21.12c8 2.24 13.44 9.472 13.44 17.728v45.952a18.496 18.496 0 0 1-13.44 17.792zM339.136 286.272a9.344 9.344 0 0 0-13.952-2.624 294.528 294.528 0 0 0 0 456.704 9.344 9.344 0 0 0 13.952-2.624l106.304-184.192a83.072 83.072 0 0 0 0-83.072L339.072 286.272zM512 216.576c-35.712 0-71.168 6.4-104.64 19.072a9.28 9.28 0 0 0-4.544 13.312l106.496 184.576c14.848 25.728 42.24 41.536 72 41.536h212.736a9.344 9.344 0 0 0 9.28-10.688A295.296 295.296 0 0 0 512 216.576z m282.048 332.352H581.312c-29.696 0-57.152 15.808-72 41.536l-106.496 184.512a9.28 9.28 0 0 0 4.608 13.312 295.36 295.36 0 0 0 395.904-228.672 9.344 9.344 0 0 0-9.28-10.688z" fill="currentColor" p-id="17647"></path></svg>
