<svg t="1711403576024" class="icon" viewBox="0 0 1024 1024" version="1.1"
xmlns="http://www.w3.org/2000/svg" p-id="20272" width="1em" height="1em" fill="currentColor"><path d="M507.022 64c14.933 0 24.891 5.035 39.823 15.101 19.908 20.135 19.908 55.371 0 75.506L193.424 512.001l353.422 357.396c19.908 20.133 19.908 55.372 0 75.504s-54.756 20.132-74.667 0L78.934 547.233c-19.912-20.132-19.912-55.368 0-75.503L467.199 79.101C477.157 69.035 492.089 64 507.022 64z m398.224 0c14.933 0 24.884 5.035 39.823 15.101 19.908 20.135 19.908 55.371 0 75.506L591.644 512.001 945.07 869.397c19.908 20.133 19.908 55.372 0 75.504-19.915 20.132-54.756 20.132-74.671 0L482.132 547.233c-19.908-20.132-19.908-55.368 0-75.503L870.398 79.101C880.355 69.035 895.289 64 905.246 64z" p-id="20273"></path></svg>
