<svg t="1711403509648" class="icon" viewBox="0 0 1024 1024" version="1.1" xmlns="http://www.w3.org/2000/svg" p-id="19318" width="1em" height="1em"><path d="M516.979 960c-14.934 0-24.892-5.035-39.822-15.101-19.908-20.136-19.908-55.371 0-75.506l353.421-357.395-353.424-357.395c-19.907-20.133-19.907-55.37 0-75.504 19.908-20.132 54.757-20.132 74.668 0l393.244 397.668c19.912 20.133 19.912 55.368 0 75.504L556.801 944.899C546.843 954.965 531.91 960 516.979 960z m-398.225 0c-14.934 0-24.885-5.035-39.823-15.101-19.907-20.136-19.907-55.371 0-75.506l353.426-357.395L78.93 154.603c-19.907-20.133-19.907-55.37 0-75.504 19.915-20.132 54.756-20.132 74.672 0l388.266 397.668c19.908 20.134 19.908 55.368 0 75.504L153.601 944.899C143.645 954.965 128.711 960 118.754 960z" p-id="19319" fill="currentColor"></path></svg>
