<svg t="1711289533357" class="icon" viewBox="0 0 1024 1024" version="1.1"
xmlns="http://www.w3.org/2000/svg" p-id="180091" width="1em" height="1em"><path d="M833.164 102.4H700.509V72.145c0-16.29-13.964-30.254-30.254-30.254H351.418c-16.29 0-30.254 13.964-30.254 30.254V102.4H190.836c-48.872 0-88.436 39.564-88.436 88.436v702.837c0 48.872 39.564 88.436 88.436 88.436h644.655c48.873 0 88.436-39.564 88.436-88.436V190.836c-2.327-48.872-41.89-88.436-90.763-88.436z m-453.819 0h262.982v58.182H379.345V102.4z m484.073 788.945c0 16.291-13.963 30.255-30.254 30.255H190.836c-16.29 0-30.254-13.964-30.254-30.255V190.836c0-16.29 13.963-30.254 30.254-30.254h132.655v30.254c0 16.291 13.964 30.255 30.254 30.255H674.91c16.291 0 30.255-13.964 30.255-30.255v-30.254h132.654c16.291 0 30.255 13.963 30.255 30.254v700.51zM681.891 432.873L479.418 660.945 356.073 549.236c-11.637-11.636-30.255-11.636-41.891 0s-11.637 30.255 0 41.891L460.8 723.782a29.498 29.498 0 0 0 41.89 0l218.765-249.018a29.498 29.498 0 0 0 0-41.891c-9.31-11.637-27.928-11.637-39.564 0z" fill="currentColor" p-id="180092"></path></svg>
