<svg t="1711661266771" class="icon" viewBox="0 0 1024 1024" version="1.1"
xmlns="http://www.w3.org/2000/svg" p-id="166357" width="1em" height="1em">
<path d="M614.976 47.466667c-12.885333-2.858667-24.746667 7.210667-24.746667 20.394666v35.776c0 10.176 7.189333 18.858667 17.066667 21.312 169.941333 42.154667 295.829333 194.688 295.829333 376.384 0 181.696-125.888 334.186667-295.850666 376.384a22.165333 22.165333 0 0 0-17.045334 21.290667v35.797333c0 13.184 11.861333 23.253333 24.746667 20.394667C824.533333 908.586667 981.333333 723.349333 981.333333 501.333333c0-222.016-156.778667-407.253333-366.357333-453.866666zM120.896 501.333333c0-181.696 125.888-334.229333 295.850667-376.384 9.856-2.453333 17.045333-11.136 17.045333-21.312V67.861333c0-13.184-11.861333-23.253333-24.746667-20.394666C199.402667 94.08 42.666667 279.317333 42.666667 501.333333c0 222.016 156.736 407.253333 366.357333 453.866667 12.885333 2.858667 24.746667-7.210667 24.746667-20.394667v-35.797333c0-10.154667-7.189333-18.837333-17.045334-21.290667C246.784 835.52 120.896 683.029333 120.896 501.333333z m448 232.810667a21.333333 21.333333 0 0 0 21.333333-21.333333V483.84a21.333333 21.333333 0 0 1 21.333334-21.333333h49.706666a21.333333 21.333333 0 0 0 16.341334-35.050667l-149.376-177.792a21.333333 21.333333 0 0 0-32.661334 0l-149.397333 177.792a21.333333 21.333333 0 0 0 16.341333 35.050667h49.898667a21.333333 21.333333 0 0 1 21.333333 21.333333v228.970667a21.333333 21.333333 0 0 0 21.333334 21.333333h113.813333z" fill="currentColor" p-id="166358"></path></svg>
