<svg t="1711216492316" class="icon" viewBox="0 0 1024 1024"
version="1.1" xmlns="http://www.w3.org/2000/svg" p-id="6338" width="1em" height="1em"><path d="M486.736239 69.795025l22.456676 120.230846h392.966369c40.231483 0 72.979104 32.747622 72.979104 72.979104v620.324935c0 40.231483-32.747622 72.979104-72.979104 72.979105H428.261254l26.196059-120.699542H121.840716c-40.231483 0-72.979104-32.747622-72.979104-72.979105V142.779224A72.775323 72.775323 0 0 1 121.840716 69.795025h364.895523z m415.891741 156.717851h-383.144119l109.002507 609.565293H491.881711l-18.238408 83.738746h428.984677c20.113194 0 36.487005-16.373811 36.487005-36.487005V263.004975c0-20.118289-16.373811-36.4921-36.487005-36.492099zM771.943164 405.473433v51.118487h105.191801v142.71809h-28.070846v-16.842508h-77.120955v98.986667h-28.957293v-98.986667h-76.825473v16.842508h-28.070846V456.59192h104.896319V405.473433h28.957293z m-28.957293 78.598368h-76.825473v70.915821h76.825473v-70.915821z m106.078248 0h-77.120955v70.915821h77.120955v-70.915821zM291.417154 336.08597H139.844776v210.974567h156.605771v-27.47988H172.042189V452.506109h112.283383v-27.47988H172.042189V363.565851h119.374965V336.08597z m112.283383 54.073314c-9.450348 0-18.019343 1.772896-25.70189 5.909651-7.682547 3.841274-14.478647 9.455443-20.388299 17.13799v-18.910885h-31.321154v152.764497h31.321154V455.165453c1.18193-12.410269 5.614169-22.161194 12.705752-29.252776 6.500617-6.500617 14.478647-9.455443 23.343124-9.455443 23.638607 0 35.753393 13.001234 35.753393 39.003701v91.599602h31.321154V452.801592c0-41.958527-19.206368-62.642308-57.028139-62.642308z" fill="currentColor" p-id="6339"></path></svg>
